<?xml version="1.0" encoding="UTF-8" standalone="no"?>
<!DOCTYPE svg PUBLIC "-//W3C//DTD SVG 1.1//EN" "http://www.w3.org/Graphics/SVG/1.1/DTD/svg11.dtd">
<svg width="100%" height="100%" viewBox="0 0 1654 1654" version="1.1" xmlns="http://www.w3.org/2000/svg" xmlns:xlink="http://www.w3.org/1999/xlink" xml:space="preserve" xmlns:serif="http://www.serif.com/" style="fill-rule:evenodd;clip-rule:evenodd;stroke-linecap:round;stroke-linejoin:round;stroke-miterlimit:1.5;">
    <g id="grid" transform="matrix(1.4,0,0,1.4,0,0)">
        <g>
            <g transform="matrix(1,0,0,0.850129,1089.33,32.0454)">
                <path d="M-245.681,-37.695L-245.681,1351.63" style="fill:none;stroke:rgb(128,128,128);stroke-width:8.98px;"/>
            </g>
            <g transform="matrix(1,0,0,0.850129,920.597,32.0454)">
                <path d="M-245.681,-37.695L-245.681,1351.63" style="fill:none;stroke:rgb(128,128,128);stroke-width:8.98px;"/>
            </g>
            <g transform="matrix(1,0,0,0.850129,751.868,32.0454)">
                <path d="M-245.681,-37.695L-245.681,1351.63" style="fill:none;stroke:rgb(128,128,128);stroke-width:8.98px;"/>
            </g>
            <g transform="matrix(1,0,0,0.850129,583.139,32.0454)">
                <path d="M-245.681,-37.695L-245.681,1351.63" style="fill:none;stroke:rgb(128,128,128);stroke-width:8.98px;"/>
            </g>
            <g transform="matrix(1,0,0,0.850129,414.41,32.0454)">
                <path d="M-245.681,-37.695L-245.681,1351.63" style="fill:none;stroke:rgb(128,128,128);stroke-width:8.98px;"/>
            </g>
            <g transform="matrix(1,0,0,0.850129,1258.05,32.0454)">
                <path d="M-245.681,-37.695L-245.681,1351.63" style="fill:none;stroke:rgb(128,128,128);stroke-width:8.98px;"/>
            </g>
        </g>
        <g transform="matrix(6.12323e-17,1,-1,6.12323e-17,1181.1,0)">
            <g transform="matrix(1,0,0,0.850129,1089.33,32.0454)">
                <path d="M-245.681,-37.695L-245.681,1351.63" style="fill:none;stroke:rgb(128,128,128);stroke-width:8.98px;"/>
            </g>
            <g transform="matrix(1,0,0,0.850129,920.597,32.0454)">
                <path d="M-245.681,-37.695L-245.681,1351.63" style="fill:none;stroke:rgb(128,128,128);stroke-width:8.98px;"/>
            </g>
            <g transform="matrix(1,0,0,0.850129,751.868,32.0454)">
                <path d="M-245.681,-37.695L-245.681,1351.63" style="fill:none;stroke:rgb(128,128,128);stroke-width:8.98px;"/>
            </g>
            <g transform="matrix(1,0,0,0.850129,583.139,32.0454)">
                <path d="M-245.681,-37.695L-245.681,1351.63" style="fill:none;stroke:rgb(128,128,128);stroke-width:8.98px;"/>
            </g>
            <g transform="matrix(1,0,0,0.850129,414.41,32.0454)">
                <path d="M-245.681,-37.695L-245.681,1351.63" style="fill:none;stroke:rgb(128,128,128);stroke-width:8.98px;"/>
            </g>
            <g transform="matrix(1,0,0,0.850129,1258.05,32.0454)">
                <path d="M-245.681,-37.695L-245.681,1351.63" style="fill:none;stroke:rgb(128,128,128);stroke-width:8.98px;"/>
            </g>
        </g>
    </g>
    <g transform="matrix(1.21954,0,0,1.21954,-419.477,-240.915)">
        <rect x="753.067" y="995.544" width="145.273" height="145.273" style="fill:rgb(0,128,255);"/>
    </g>
    <g transform="matrix(1.21954,0,0,1.21954,291.931,-478.051)">
        <rect x="753.067" y="995.544" width="145.273" height="145.273" style="fill:rgb(0,128,255);"/>
    </g>
    <g transform="matrix(2.55891,0,0,2.55891,-1265.37,-1270.24)">
        <circle cx="863.929" cy="864.997" r="80.953" style="fill:rgb(255,128,0);"/>
    </g>
    <g transform="matrix(0.173205,0.1,-0.1,0.173205,553.601,897.277)">
        <path d="M559.301,928.522L415.86,928.522L415.86,866.022L509.511,866.022L590.551,136.662L671.591,866.022L765.243,866.022L765.243,928.522L621.801,928.522L621.801,1062.81L559.301,1062.81L559.301,928.522Z"/>
    </g>
    <g transform="matrix(1,0,0,1,1127.66,692.181)">
        <path d="M146.441,52.791C141.349,49.684 135.964,47.308 130.394,45.779C175.494,45.779 212.11,84.617 212.11,132.454C212.11,180.292 175.494,219.13 130.394,219.13C135.964,217.6 141.349,215.225 146.441,212.118L146.441,52.791ZM154.774,206.17C174.165,190.18 187.595,162.968 187.595,132.454C187.595,101.941 174.165,74.728 154.774,58.739L154.774,206.17Z"/>
    </g>
</svg>
